<mxfile host="app.diagrams.net" agent="Mozilla/5.0 (Windows NT 10.0; Win64; x64) AppleWebKit/537.36 (KHTML, like Gecko) Chrome/135.0.0.0 Safari/537.36" version="26.2.14">
  <diagram name="‫עמוד-1‬" id="80Lkp19opxbQCbtKhPva">
    <mxGraphModel dx="2211" dy="562" grid="1" gridSize="10" guides="1" tooltips="1" connect="0" arrows="1" fold="1" page="1" pageScale="1" pageWidth="1169" pageHeight="827" background="light-dark(#FFFFFF, #868383)" math="0" shadow="0">
      <root>
        <mxCell id="0" />
        <mxCell id="1" parent="0" />
        <mxCell id="Nk3ea_7_2DymewOkZaad-1" value="&lt;b&gt;&lt;font style=&quot;color: light-dark(rgb(78, 78, 78), rgb(78, 78, 78));&quot;&gt;AWS Cloud&lt;/font&gt;&lt;/b&gt;" style="sketch=0;outlineConnect=0;gradientColor=none;html=1;whiteSpace=wrap;fontSize=12;fontStyle=0;shape=mxgraph.aws4.group;grIcon=mxgraph.aws4.group_aws_cloud;strokeColor=light-dark(#00A4A6,#3BCAC5);fillColor=light-dark(#000000,#FFFFFF);verticalAlign=top;align=left;spacingLeft=30;fontColor=#AAB7B8;movable=1;resizable=1;rotatable=1;deletable=1;editable=1;locked=0;connectable=1;" parent="1" vertex="1">
          <mxGeometry x="30" width="820" height="540" as="geometry" />
        </mxCell>
        <mxCell id="Nk3ea_7_2DymewOkZaad-3" value="&lt;font style=&quot;color: light-dark(rgb(0, 0, 0), rgb(78, 78, 78));&quot;&gt;&lt;b&gt;VPC&lt;/b&gt;&lt;/font&gt;" style="sketch=0;outlineConnect=0;gradientColor=none;html=1;whiteSpace=wrap;fontSize=12;fontStyle=0;shape=mxgraph.aws4.group;grIcon=mxgraph.aws4.group_vpc;strokeColor=light-dark(#00A4A6,#3BCAC5);fillColor=none;verticalAlign=top;align=left;spacingLeft=30;fontColor=#B6BABF;strokeWidth=2;movable=1;resizable=1;rotatable=1;deletable=1;editable=1;locked=0;connectable=1;" parent="1" vertex="1">
          <mxGeometry x="140" y="60" width="590" height="460" as="geometry" />
        </mxCell>
        <mxCell id="Nk3ea_7_2DymewOkZaad-2" value="&lt;b&gt;&lt;font style=&quot;color: light-dark(rgb(0, 0, 0), rgb(78, 78, 78));&quot;&gt;AWS Region&lt;/font&gt;&lt;/b&gt;" style="points=[[0,0],[0.25,0],[0.5,0],[0.75,0],[1,0],[1,0.25],[1,0.5],[1,0.75],[1,1],[0.75,1],[0.5,1],[0.25,1],[0,1],[0,0.75],[0,0.5],[0,0.25]];outlineConnect=0;gradientColor=none;html=1;whiteSpace=wrap;fontSize=12;fontStyle=0;container=0;pointerEvents=0;collapsible=0;recursiveResize=0;shape=mxgraph.aws4.group;grIcon=mxgraph.aws4.group_region;strokeColor=light-dark(#00A4A6,#3BCAC5);fillColor=none;verticalAlign=top;align=left;spacingLeft=30;fontColor=light-dark(#147EBA, #0494e7);strokeWidth=2;movable=1;resizable=1;rotatable=1;deletable=1;editable=1;locked=0;connectable=1;" parent="1" vertex="1">
          <mxGeometry x="100" y="30" width="730" height="500" as="geometry" />
        </mxCell>
        <mxCell id="Nk3ea_7_2DymewOkZaad-20" value="&lt;b&gt;&lt;font style=&quot;color: light-dark(rgb(0, 0, 0), rgb(78, 78, 78));&quot;&gt;Availability zone&lt;/font&gt;&lt;/b&gt;" style="sketch=0;outlineConnect=0;gradientColor=none;html=1;whiteSpace=wrap;fontSize=12;fontStyle=0;shape=mxgraph.aws4.group;grIcon=mxgraph.aws4.group_availability_zone;strokeColor=light-dark(#00A4A6,#3BCAC5);fillColor=none;verticalAlign=top;align=left;spacingLeft=30;fontColor=#545B64;strokeWidth=2;movable=1;resizable=1;rotatable=1;deletable=1;editable=1;locked=0;connectable=1;" parent="1" vertex="1">
          <mxGeometry x="280" y="120" width="421" height="170.75" as="geometry" />
        </mxCell>
        <mxCell id="Nk3ea_7_2DymewOkZaad-47" style="edgeStyle=orthogonalEdgeStyle;rounded=0;orthogonalLoop=1;jettySize=auto;html=1;startArrow=classic;startFill=1;strokeColor=light-dark(#000000,#000000);movable=0;resizable=0;rotatable=0;deletable=0;editable=0;locked=1;connectable=0;" parent="1" source="Nk3ea_7_2DymewOkZaad-6" target="Nk3ea_7_2DymewOkZaad-8" edge="1">
          <mxGeometry relative="1" as="geometry" />
        </mxCell>
        <mxCell id="Nk3ea_7_2DymewOkZaad-6" value="Internet&#xa;gateway" style="sketch=0;outlineConnect=0;fontColor=light-dark(#232F3E,#C2C2C2);gradientColor=none;strokeColor=#232F3E;fillColor=#ffffff;dashed=0;verticalLabelPosition=bottom;verticalAlign=top;align=center;html=1;fontSize=12;fontStyle=0;aspect=fixed;shape=mxgraph.aws4.resourceIcon;resIcon=mxgraph.aws4.internet_gateway;movable=1;resizable=1;rotatable=1;deletable=1;editable=1;locked=0;connectable=1;" parent="1" vertex="1">
          <mxGeometry x="-10" y="344.99999999999994" width="68.75" height="68.75" as="geometry" />
        </mxCell>
        <mxCell id="Nk3ea_7_2DymewOkZaad-49" style="edgeStyle=orthogonalEdgeStyle;rounded=0;orthogonalLoop=1;jettySize=auto;html=1;movable=0;resizable=0;rotatable=0;deletable=0;editable=0;locked=1;connectable=0;" parent="1" source="Nk3ea_7_2DymewOkZaad-8" target="Nk3ea_7_2DymewOkZaad-13" edge="1">
          <mxGeometry relative="1" as="geometry" />
        </mxCell>
        <mxCell id="Nk3ea_7_2DymewOkZaad-51" style="edgeStyle=orthogonalEdgeStyle;rounded=0;orthogonalLoop=1;jettySize=auto;html=1;startArrow=classicThin;startFill=1;movable=0;resizable=0;rotatable=0;deletable=0;editable=0;locked=1;connectable=0;" parent="1" source="Nk3ea_7_2DymewOkZaad-8" target="Nk3ea_7_2DymewOkZaad-43" edge="1">
          <mxGeometry relative="1" as="geometry" />
        </mxCell>
        <mxCell id="Nk3ea_7_2DymewOkZaad-8" value="Application Load Balancer" style="sketch=0;outlineConnect=0;fontColor=#232F3E;gradientColor=none;strokeColor=#ffffff;fillColor=#232F3E;dashed=0;verticalLabelPosition=middle;verticalAlign=bottom;align=center;html=1;whiteSpace=wrap;fontSize=10;fontStyle=1;spacing=3;shape=mxgraph.aws4.productIcon;prIcon=mxgraph.aws4.application_load_balancer;movable=1;resizable=1;rotatable=1;deletable=1;editable=1;locked=0;connectable=1;" parent="1" vertex="1">
          <mxGeometry x="160" y="331.53" width="70" height="95.68" as="geometry" />
        </mxCell>
        <mxCell id="Nk3ea_7_2DymewOkZaad-11" value="&lt;b&gt;&lt;font style=&quot;color: light-dark(rgb(0, 0, 0), rgb(78, 78, 78));&quot;&gt;Availability zone&lt;/font&gt;&lt;/b&gt;" style="sketch=0;outlineConnect=0;gradientColor=none;html=1;whiteSpace=wrap;fontSize=12;fontStyle=0;shape=mxgraph.aws4.group;grIcon=mxgraph.aws4.group_availability_zone;strokeColor=light-dark(#00A4A6,#3BCAC5);fillColor=none;verticalAlign=top;align=left;spacingLeft=30;fontColor=#545B64;strokeWidth=2;movable=1;resizable=1;rotatable=1;deletable=1;editable=1;locked=0;connectable=1;" parent="1" vertex="1">
          <mxGeometry x="280" y="299.75" width="425" height="200" as="geometry" />
        </mxCell>
        <mxCell id="Nk3ea_7_2DymewOkZaad-38" style="edgeStyle=orthogonalEdgeStyle;rounded=0;orthogonalLoop=1;jettySize=auto;html=1;startArrow=classic;startFill=1;endArrow=classic;endFill=1;movable=0;resizable=0;rotatable=0;deletable=0;editable=0;locked=1;connectable=0;" parent="1" target="Nk3ea_7_2DymewOkZaad-14" edge="1">
          <mxGeometry relative="1" as="geometry">
            <mxPoint x="390" y="390" as="sourcePoint" />
          </mxGeometry>
        </mxCell>
        <mxCell id="Nk3ea_7_2DymewOkZaad-66" style="edgeStyle=orthogonalEdgeStyle;rounded=0;orthogonalLoop=1;jettySize=auto;html=1;startArrow=block;startFill=1;strokeColor=light-dark(#000000,#000000);movable=0;resizable=0;rotatable=0;deletable=0;editable=0;locked=1;connectable=0;" parent="1" source="Nk3ea_7_2DymewOkZaad-13" edge="1">
          <mxGeometry relative="1" as="geometry">
            <mxPoint x="498.5" y="243.42999999999998" as="sourcePoint" />
            <mxPoint x="421.5" y="355.25" as="targetPoint" />
            <Array as="points">
              <mxPoint x="422" y="243" />
            </Array>
          </mxGeometry>
        </mxCell>
        <mxCell id="Nk3ea_7_2DymewOkZaad-74" style="edgeStyle=orthogonalEdgeStyle;rounded=0;orthogonalLoop=1;jettySize=auto;html=1;strokeColor=light-dark(#000000,#000000);startArrow=classicThin;startFill=1;movable=1;resizable=1;rotatable=1;deletable=1;editable=1;locked=0;connectable=1;" parent="1" target="Nk3ea_7_2DymewOkZaad-8" edge="1">
          <mxGeometry relative="1" as="geometry">
            <mxPoint x="500" y="237" as="sourcePoint" />
          </mxGeometry>
        </mxCell>
        <mxCell id="Nk3ea_7_2DymewOkZaad-45" style="edgeStyle=orthogonalEdgeStyle;rounded=0;orthogonalLoop=1;jettySize=auto;html=1;strokeColor=light-dark(#000000,#000000);startArrow=classic;startFill=1;movable=1;resizable=1;rotatable=1;deletable=1;editable=1;locked=0;connectable=1;" parent="1" source="Nk3ea_7_2DymewOkZaad-84" target="Nk3ea_7_2DymewOkZaad-79" edge="1">
          <mxGeometry relative="1" as="geometry" />
        </mxCell>
        <mxCell id="Nk3ea_7_2DymewOkZaad-67" style="edgeStyle=orthogonalEdgeStyle;rounded=0;orthogonalLoop=1;jettySize=auto;html=1;startArrow=classicThin;startFill=1;endArrow=classicThin;endFill=1;strokeColor=light-dark(#000000,#000000);movable=1;resizable=1;rotatable=1;deletable=1;editable=1;locked=0;connectable=1;" parent="1" source="Nk3ea_7_2DymewOkZaad-64" target="Nk3ea_7_2DymewOkZaad-84" edge="1">
          <mxGeometry relative="1" as="geometry">
            <mxPoint x="630" y="426" as="targetPoint" />
          </mxGeometry>
        </mxCell>
        <mxCell id="Nk3ea_7_2DymewOkZaad-64" value="AWS Secrets Manager" style="sketch=0;outlineConnect=0;fontColor=#232F3E;gradientColor=none;strokeColor=#ffffff;fillColor=#232F3E;dashed=0;verticalLabelPosition=middle;verticalAlign=bottom;align=center;html=1;whiteSpace=wrap;fontSize=10;fontStyle=1;spacing=3;shape=mxgraph.aws4.productIcon;prIcon=mxgraph.aws4.secrets_manager;movable=1;resizable=1;rotatable=1;deletable=1;editable=1;locked=0;connectable=1;" parent="1" vertex="1">
          <mxGeometry x="740" y="362.5" width="70" height="102.5" as="geometry" />
        </mxCell>
        <mxCell id="Nk3ea_7_2DymewOkZaad-68" value="" style="edgeStyle=orthogonalEdgeStyle;rounded=0;orthogonalLoop=1;jettySize=auto;html=1;movable=0;resizable=0;rotatable=0;deletable=0;editable=0;locked=1;connectable=0;" parent="1" source="Nk3ea_7_2DymewOkZaad-65" target="Nk3ea_7_2DymewOkZaad-3" edge="1">
          <mxGeometry relative="1" as="geometry" />
        </mxCell>
        <mxCell id="Nk3ea_7_2DymewOkZaad-65" value="Role" style="sketch=0;outlineConnect=0;fontColor=light-dark(#232F3E, #000000);gradientColor=none;strokeColor=#232F3E;fillColor=#ffffff;dashed=0;verticalLabelPosition=bottom;verticalAlign=top;align=center;html=1;fontSize=12;fontStyle=0;aspect=fixed;shape=mxgraph.aws4.resourceIcon;resIcon=mxgraph.aws4.role;movable=1;resizable=1;rotatable=1;deletable=1;editable=1;locked=0;connectable=1;" parent="1" vertex="1">
          <mxGeometry x="740" y="272.65" width="39.5" height="39.5" as="geometry" />
        </mxCell>
        <mxCell id="Nk3ea_7_2DymewOkZaad-70" value="Auto Scaling group" style="points=[[0,0],[0.25,0],[0.5,0],[0.75,0],[1,0],[1,0.25],[1,0.5],[1,0.75],[1,1],[0.75,1],[0.5,1],[0.25,1],[0,1],[0,0.75],[0,0.5],[0,0.25]];outlineConnect=0;gradientColor=none;html=1;whiteSpace=wrap;fontSize=12;fontStyle=1;container=1;pointerEvents=0;collapsible=0;recursiveResize=0;shape=mxgraph.aws4.groupCenter;grIcon=mxgraph.aws4.group_auto_scaling_group;grStroke=1;strokeColor=#D86613;fillColor=none;verticalAlign=top;align=center;fontColor=#D86613;spacingTop=25;labelBackgroundColor=none;labelBorderColor=none;dashed=1;strokeWidth=2;movable=1;resizable=1;rotatable=1;deletable=1;editable=1;locked=0;connectable=1;" parent="1" vertex="1">
          <mxGeometry x="500" y="70" width="140" height="410" as="geometry" />
        </mxCell>
        <mxCell id="Nk3ea_7_2DymewOkZaad-84" value="Public subnet" style="points=[[0,0],[0.25,0],[0.5,0],[0.75,0],[1,0],[1,0.25],[1,0.5],[1,0.75],[1,1],[0.75,1],[0.5,1],[0.25,1],[0,1],[0,0.75],[0,0.5],[0,0.25]];outlineConnect=0;gradientColor=none;html=1;whiteSpace=wrap;fontSize=12;fontStyle=0;container=1;pointerEvents=0;collapsible=0;recursiveResize=0;shape=mxgraph.aws4.group;grIcon=mxgraph.aws4.group_security_group;grStroke=0;strokeColor=#7AA116;fillColor=#F2F6E8;verticalAlign=top;align=left;spacingLeft=30;fontColor=#248814;dashed=0;" parent="Nk3ea_7_2DymewOkZaad-70" vertex="1">
          <mxGeometry x="15" y="284" width="110" height="119.5" as="geometry" />
        </mxCell>
        <mxCell id="Nk3ea_7_2DymewOkZaad-79" value="Private subnet" style="points=[[0,0],[0.25,0],[0.5,0],[0.75,0],[1,0],[1,0.25],[1,0.5],[1,0.75],[1,1],[0.75,1],[0.5,1],[0.25,1],[0,1],[0,0.75],[0,0.5],[0,0.25]];outlineConnect=0;gradientColor=none;html=1;whiteSpace=wrap;fontSize=12;fontStyle=0;container=1;pointerEvents=0;collapsible=0;recursiveResize=0;shape=mxgraph.aws4.group;grIcon=mxgraph.aws4.group_security_group;grStroke=0;strokeColor=#00A4A6;fillColor=#E6F6F7;verticalAlign=top;align=left;spacingLeft=30;fontColor=#147EBA;dashed=0;" parent="1" vertex="1">
          <mxGeometry x="320" y="356.25" width="130" height="130" as="geometry" />
        </mxCell>
        <mxCell id="Nk3ea_7_2DymewOkZaad-14" value="Amazon RDS" style="sketch=0;outlineConnect=0;fontColor=#232F3E;gradientColor=none;strokeColor=#ffffff;fillColor=#232F3E;dashed=0;verticalLabelPosition=middle;verticalAlign=bottom;align=center;html=1;whiteSpace=wrap;fontSize=10;fontStyle=1;spacing=3;shape=mxgraph.aws4.productIcon;prIcon=mxgraph.aws4.rds;movable=1;resizable=1;rotatable=1;deletable=1;editable=1;locked=0;connectable=1;" parent="Nk3ea_7_2DymewOkZaad-79" vertex="1">
          <mxGeometry x="40" y="23.750000000000064" width="75" height="92.57" as="geometry" />
        </mxCell>
        <mxCell id="Nk3ea_7_2DymewOkZaad-82" value="Public subnet" style="points=[[0,0],[0.25,0],[0.5,0],[0.75,0],[1,0],[1,0.25],[1,0.5],[1,0.75],[1,1],[0.75,1],[0.5,1],[0.25,1],[0,1],[0,0.75],[0,0.5],[0,0.25]];outlineConnect=0;gradientColor=none;html=1;whiteSpace=wrap;fontSize=12;fontStyle=0;container=1;pointerEvents=0;collapsible=0;recursiveResize=0;shape=mxgraph.aws4.group;grIcon=mxgraph.aws4.group_security_group;grStroke=0;strokeColor=#7AA116;fillColor=#F2F6E8;verticalAlign=top;align=left;spacingLeft=30;fontColor=#248814;dashed=0;" parent="1" vertex="1">
          <mxGeometry x="510" y="170" width="115" height="110" as="geometry" />
        </mxCell>
        <mxCell id="Nk3ea_7_2DymewOkZaad-13" value="Amazon EC2" style="sketch=0;outlineConnect=0;fontColor=#232F3E;gradientColor=none;strokeColor=#ffffff;fillColor=#232F3E;dashed=0;verticalLabelPosition=middle;verticalAlign=bottom;align=center;html=1;whiteSpace=wrap;fontSize=10;fontStyle=1;spacing=3;shape=mxgraph.aws4.productIcon;prIcon=mxgraph.aws4.ec2;movable=1;resizable=1;rotatable=1;deletable=1;editable=1;locked=0;connectable=1;" parent="1" vertex="1">
          <mxGeometry x="536.1300000000001" y="194.25" width="66.81" height="85.75" as="geometry" />
        </mxCell>
        <mxCell id="Nk3ea_7_2DymewOkZaad-85" style="edgeStyle=orthogonalEdgeStyle;rounded=0;orthogonalLoop=1;jettySize=auto;html=1;startArrow=classic;startFill=1;strokeColor=light-dark(#000000,#000000);" parent="1" source="Nk3ea_7_2DymewOkZaad-43" target="Nk3ea_7_2DymewOkZaad-8" edge="1">
          <mxGeometry relative="1" as="geometry">
            <Array as="points">
              <mxPoint x="564" y="510" />
              <mxPoint x="195" y="510" />
            </Array>
          </mxGeometry>
        </mxCell>
        <mxCell id="Nk3ea_7_2DymewOkZaad-43" value="Amazon EC2" style="sketch=0;outlineConnect=0;fontColor=#232F3E;gradientColor=none;strokeColor=#ffffff;fillColor=#232F3E;dashed=0;verticalLabelPosition=middle;verticalAlign=bottom;align=center;html=1;whiteSpace=wrap;fontSize=10;fontStyle=1;spacing=3;shape=mxgraph.aws4.productIcon;prIcon=mxgraph.aws4.ec2;movable=1;resizable=1;rotatable=1;deletable=1;editable=1;locked=0;connectable=1;" parent="1" vertex="1">
          <mxGeometry x="536.13" y="368.88" width="72.94" height="91.75" as="geometry" />
        </mxCell>
      </root>
    </mxGraphModel>
  </diagram>
</mxfile>
